<mxfile host="app.diagrams.net" modified="2022-10-14T16:34:47.896Z" agent="5.0 (Windows NT 10.0; Win64; x64) AppleWebKit/537.36 (KHTML, like Gecko) Chrome/106.0.0.0 Safari/537.36 Edg/106.0.1370.42" etag="WhMQZtUpqcvXqoq1Wcgq" version="20.4.1" type="github">
  <diagram id="pGKcQqe7rzBw23-9qWBj" name="第 1 页">
    <mxGraphModel dx="1161" dy="771" grid="0" gridSize="10" guides="1" tooltips="1" connect="1" arrows="1" fold="1" page="1" pageScale="1" pageWidth="827" pageHeight="1169" math="0" shadow="0">
      <root>
        <mxCell id="0" />
        <mxCell id="1" parent="0" />
        <mxCell id="nu8JQhl-7PeckI64FYxP-5" value="双向物流动态调度优化技术" style="rounded=1;whiteSpace=wrap;html=1;fontSize=16;verticalAlign=top;" vertex="1" parent="1">
          <mxGeometry x="89" y="162" width="577" height="289" as="geometry" />
        </mxCell>
        <mxCell id="nu8JQhl-7PeckI64FYxP-6" value="静态" style="rounded=1;whiteSpace=wrap;html=1;fontSize=16;fillColor=#dae8fc;strokeColor=#6c8ebf;verticalAlign=top;" vertex="1" parent="1">
          <mxGeometry x="103" y="266" width="189" height="174" as="geometry" />
        </mxCell>
        <mxCell id="nu8JQhl-7PeckI64FYxP-1" value="&lt;font style=&quot;font-size: 16px;&quot;&gt;车辆路径问题VRP&lt;/font&gt;" style="rounded=1;whiteSpace=wrap;html=1;fillColor=#d5e8d4;strokeColor=#82b366;" vertex="1" parent="1">
          <mxGeometry x="112" y="301" width="169" height="71" as="geometry" />
        </mxCell>
        <mxCell id="nu8JQhl-7PeckI64FYxP-3" value="&lt;font style=&quot;font-size: 16px;&quot;&gt;时间窗&lt;/font&gt;" style="rounded=1;whiteSpace=wrap;html=1;fillColor=#d5e8d4;strokeColor=#82b366;" vertex="1" parent="1">
          <mxGeometry x="203" y="385" width="78" height="43" as="geometry" />
        </mxCell>
        <mxCell id="nu8JQhl-7PeckI64FYxP-4" value="&lt;font style=&quot;font-size: 16px;&quot;&gt;多车辆&lt;/font&gt;" style="rounded=1;whiteSpace=wrap;html=1;fillColor=#d5e8d4;strokeColor=#82b366;" vertex="1" parent="1">
          <mxGeometry x="112" y="385" width="78" height="43" as="geometry" />
        </mxCell>
        <mxCell id="nu8JQhl-7PeckI64FYxP-7" value="动态" style="rounded=1;whiteSpace=wrap;html=1;fontSize=16;fillColor=#f8cecc;strokeColor=#b85450;" vertex="1" parent="1">
          <mxGeometry x="326" y="312" width="120" height="60" as="geometry" />
        </mxCell>
        <mxCell id="nu8JQhl-7PeckI64FYxP-8" value="智能装箱" style="rounded=1;whiteSpace=wrap;html=1;fontSize=16;fillColor=#fff2cc;strokeColor=#d6b656;" vertex="1" parent="1">
          <mxGeometry x="491" y="312" width="120" height="60" as="geometry" />
        </mxCell>
      </root>
    </mxGraphModel>
  </diagram>
</mxfile>
